<?xml version="1.0" encoding="UTF-8"?>
<svg xmlns="http://www.w3.org/2000/svg" version="1.1" viewBox="0 0 1920 1080">
  <defs>
    <style>
      .cls-1 {
        fill: #30669e;
      }

      .cls-1, .cls-2, .cls-3 {
        stroke: #fff;
        stroke-miterlimit: 10;
        stroke-width: 3px;
      }

      .cls-2 {
        fill: #4a9aa9;
      }

      .cls-3 {
        fill: #e6c243;
      }
    </style>
  </defs>
  <!-- Generator: Adobe Illustrator 28.7.1, SVG Export Plug-In . SVG Version: 1.2.0 Build 142)  -->
  <g>
    <g id="Layer_1">
      <g>
        <path class="cls-1" d="M1153.48,481.63c0,105.98-85.9,191.88-191.88,191.88-11.28,0-22.32-.97-33.04-2.85-13.52-2.33-26.55-6.1-38.95-11.12l-19.57,32.15-37.13,60.91c-10.09-4.7-19.88-9.96-29.34-15.73-10.14-6.19-19.9-12.97-29.2-20.27-8.78-6.89-17.14-14.26-25.08-22.05-5.6-5.49-10.95-11.19-16.11-17.09-7.11-8.18-13.8-16.74-20.01-25.67-33.97-48.69-53.89-107.93-53.89-171.81,0-8.69.37-17.29,1.1-25.8,13.08-154.01,142.23-274.94,299.62-274.94,21.5,0,42.46,2.26,62.67,6.54h.02c10.71,2.26,21.2,5.11,31.44,8.49l-38.14,62.58c-.99-.26-1.97-.48-2.96-.72-10.91-2.57-22.12-4.37-33.55-5.31-6.43-.55-12.92-.83-19.48-.83-109.95,0-201.85,77.15-224.58,180.25-3.53,16.02-5.4,32.65-5.4,49.74,0,38.57,9.48,74.91,26.29,106.84,5.27,10.07,11.28,19.7,17.95,28.81,4.15,5.66,8.51,11.1,13.17,16.35,7.42,8.47,15.49,16.37,24.11,23.65l1.91-3.14,18.1-29.78,1.43-2.33,33.42-54.81c7.99,8.95,17.25,16.74,27.47,23.11,9.41,5.88,19.66,10.53,30.54,13.76,11.39,3.4,23.48,5.22,35.99,5.22,2.24,0,4.45-.07,6.67-.18,66.51-3.47,119.37-58.48,119.37-125.84,0-18.48-3.97-36.01-11.1-51.83-5.97-13.21-14.15-25.19-24.09-35.5-7.72-8.05-16.54-15.1-26.2-20.87l26.88-44.13,7.7-12.66c3.62,2.15,7.18,4.43,10.64,6.82,5.7,3.93,11.19,8.16,16.43,12.66,10.25,8.82,19.57,18.69,27.76,29.49,24.49,32.21,39.04,72.41,39.04,116.01Z"/>
        <path class="cls-3" d="M1260.73,479.96c0,166.1-134.64,300.74-300.74,300.74-31.4,0-61.66-4.81-90.12-13.74l38.31-62.86c16.65,3.84,33.99,5.86,51.81,5.86,127.05,0,230-102.97,230-230,0-56.72-20.54-108.66-54.59-148.75-6.52-7.72-13.58-15.01-21.09-21.79-2.41-2.22-4.89-4.37-7.42-6.45-8.54-7.09-17.6-13.58-27.12-19.4l36.82-60.43c9.5,5.81,18.65,12.13,27.41,18.94,10.47,8.1,20.38,16.87,29.69,26.29,5.46,5.49,10.69,11.21,15.69,17.11,44.52,52.42,71.36,120.31,71.36,194.47Z"/>
        <path class="cls-3" d="M940.88,364.72l-101.37,152.63-42.17,63.5-23.08,34.76c-6.67-9.11-12.68-18.74-17.95-28.81l25.43-38.27,53.36-80.35,58.76-88.47,47.02-14.99Z"/>
        <path class="cls-2" d="M1019.85,478.16c0,28.39-22.89,51.41-51.19,51.65-.15.02-.33.02-.48.02-12,0-23.04-4.08-31.79-10.95-10.93-8.51-18.34-21.33-19.68-35.92v-.02c-.15-1.58-.22-3.16-.22-4.78,0-21.7,13.38-40.29,32.36-47.92,5.97-2.41,12.49-3.75,19.33-3.75,7.72,0,15.05,1.69,21.64,4.74,10.6,4.89,19.24,13.25,24.51,23.65,3.53,6.98,5.53,14.9,5.53,23.28Z"/>
      </g>
    </g>
  </g>
</svg>